<svg id="OBJECTS" xmlns="http://www.w3.org/2000/svg" xmlns:xlink="http://www.w3.org/1999/xlink" viewBox="0 0 465.03 48.3"><defs><style>.cls-1{fill:url(#linear-gradient);}</style><linearGradient id="linear-gradient" x1="12.62" y1="248.54" x2="477.65" y2="248.54" gradientUnits="userSpaceOnUse"><stop offset="0.32" stop-color="#69b153"/><stop offset="0.77" stop-color="#ded963"/><stop offset="0.94" stop-color="#fff170"/></linearGradient></defs><path class="cls-1" d="M12.62,248.33A22.5,22.5,0,0,1,15,237.84a23.55,23.55,0,0,1,6-7.49,25.69,25.69,0,0,1,8.22-4.48,28.51,28.51,0,0,1,8.89-1.48,28.87,28.87,0,0,1,12.08,2.54,24.39,24.39,0,0,1,9.28,7.27L46.12,247.76H36.77l12.15-12.39A19.67,19.67,0,0,0,43.83,233a19.75,19.75,0,0,0-13,.54,16.46,16.46,0,0,0-5.43,3.67,14.83,14.83,0,0,0-3.25,5.19,17.33,17.33,0,0,0-1.07,6,17.11,17.11,0,0,0,1.07,6,14.75,14.75,0,0,0,3.24,5.19,16.26,16.26,0,0,0,5.42,3.67,18.74,18.74,0,0,0,7.53,1.4,18,18,0,0,0,8.6-2,19.11,19.11,0,0,0,6.27-5.19l6.23,5a25.78,25.78,0,0,1-4.29,4.19,26.64,26.64,0,0,1-5.19,3.11,30,30,0,0,1-5.81,1.94,27.84,27.84,0,0,1-6.08.68,28.16,28.16,0,0,1-8.92-1.5A25.6,25.6,0,0,1,21,266.32a23.61,23.61,0,0,1-6-7.51A22.42,22.42,0,0,1,12.62,248.33Z" transform="translate(-12.62 -224.39)"/><path class="cls-1" d="M77,246.87h7.86l-4.75,10,23.37,0L87.29,225h8.77l23.08,46.11H110.7l-3.76-7.4-30,0-3.51,7.4H65.06Z" transform="translate(-12.62 -224.39)"/><path class="cls-1" d="M126.49,247.88h23.7a7.62,7.62,0,0,0,3.28-.64,7,7,0,0,0,2.34-1.72,7.58,7.58,0,0,0,1.43-2.47,8.63,8.63,0,0,0,.49-2.82,8.73,8.73,0,0,0-.49-2.83,7.2,7.2,0,0,0-1.43-2.46,6.93,6.93,0,0,0-2.33-1.73,7.77,7.77,0,0,0-3.28-.65H138l4.74,8.5h-7.79l-8.43-15.39h24.34a15.74,15.74,0,0,1,6.46,1.24,13.32,13.32,0,0,1,7.37,8,16.42,16.42,0,0,1,.9,5.35,15.92,15.92,0,0,1-.91,5.33,13.69,13.69,0,0,1-2.76,4.64,14.29,14.29,0,0,1-4.61,3.31,15.45,15.45,0,0,1-6.46,1.26H134.41v16.36h-7.92Z" transform="translate(-12.62 -224.39)"/><path class="cls-1" d="M183.94,255.38l-15-29.68h8.38l15.23,29.68Zm15.9,16.44h-8.76l23.46-46.08H223Z" transform="translate(-12.62 -224.39)"/><path class="cls-1" d="M270.81,264.4v6.81l-40.51,0v-6.82Zm-40.49-38.66,40.12,0v6.81h-29l3.24,6.94h-7.92Zm37.51,19.31v6.81l-35.91,0V245Z" transform="translate(-12.62 -224.39)"/><path class="cls-1" d="M287.18,239h9.09l6.42,7.08h1.56a9.36,9.36,0,0,0,3.44-.58,8,8,0,0,0,2.5-1.5,5.62,5.62,0,0,0,1.5-2.14,6.74,6.74,0,0,0,.49-2.46,6.67,6.67,0,0,0-.49-2.5,6,6,0,0,0-1.49-2.15,7.81,7.81,0,0,0-2.5-1.52,9.39,9.39,0,0,0-3.44-.59H284.39l-5.7-6.89,27,0a16.45,16.45,0,0,1,6.46,1.17,13.73,13.73,0,0,1,4.61,3.09,12.67,12.67,0,0,1,2.76,4.35,14.22,14.22,0,0,1,.9,5,13.86,13.86,0,0,1-.75,4.48,13.33,13.33,0,0,1-2.21,4.05,13,13,0,0,1-3.67,3.15,14.41,14.41,0,0,1-5.13,1.75l16.61,18.45h-10L299.38,253H286.91v18.24H279l0-25.13h14.41Z" transform="translate(-12.62 -224.39)"/><path class="cls-1" d="M364.12,240.89H355l7.15-7.13a29.43,29.43,0,0,0-5.36-1.37,34.06,34.06,0,0,0-5.55-.46,24.48,24.48,0,0,0-4.45.39,13.63,13.63,0,0,0-3.7,1.2,6.94,6.94,0,0,0-2.53,2.11,5,5,0,0,0-.94,3,3.63,3.63,0,0,0,1.45,3,11.59,11.59,0,0,0,3.8,1.82,46.47,46.47,0,0,0,5.36,1.17c2,.32,4.07.67,6.2,1s4.18.84,6.2,1.4a20.16,20.16,0,0,1,5.35,2.31,12.09,12.09,0,0,1,3.8,3.73,10.42,10.42,0,0,1,1.45,5.72,10.74,10.74,0,0,1-1.82,6.26,14.36,14.36,0,0,1-4.81,4.32,23.22,23.22,0,0,1-6.85,2.46,40,40,0,0,1-7.95.77,45.67,45.67,0,0,1-12.95-1.89,32.09,32.09,0,0,1-5.52-2.21,18.27,18.27,0,0,1-4.25-3l4.48-6.16a13.21,13.21,0,0,0,3.41,2.47,27.91,27.91,0,0,0,4.64,1.88,37.91,37.91,0,0,0,5.32,1.21,36.65,36.65,0,0,0,5.46.42,27.35,27.35,0,0,0,4.7-.39,15.3,15.3,0,0,0,3.93-1.16,7.41,7.41,0,0,0,2.7-2,4.49,4.49,0,0,0,1-2.92,4,4,0,0,0-1.43-3.22,11,11,0,0,0-3.8-1.95,37.37,37.37,0,0,0-5.38-1.23c-2-.33-4.07-.68-6.17-1a62.76,62.76,0,0,1-6.17-1.4,21.51,21.51,0,0,1-5.38-2.27,11.42,11.42,0,0,1-3.8-3.67,10.31,10.31,0,0,1-1.43-5.62,11.9,11.9,0,0,1,1.66-6.36,13.15,13.15,0,0,1,4.42-4.32,21,21,0,0,1,6.33-2.43,35.57,35.57,0,0,1,7.47-.77,42,42,0,0,1,6.23.46,42.61,42.61,0,0,1,6,1.3,32.46,32.46,0,0,1,5.33,2.08,22.47,22.47,0,0,1,4.28,2.73Z" transform="translate(-12.62 -224.39)"/><path class="cls-1" d="M388.52,247.07h7.86l-4.75,10,23.37,0L398.79,225.2h8.77l23.08,46.11H422.2l-3.76-7.41h-30l-3.51,7.39h-8.38Z" transform="translate(-12.62 -224.39)"/><path class="cls-1" d="M477.65,264.53v6.81l-39.73,0V264.5ZM438,225.87h7.92l0,30.58H438Z" transform="translate(-12.62 -224.39)"/></svg>